<?xml version="1.0" encoding="UTF-8"?>
<svg id="Calque_1" data-name="Calque 1" xmlns="http://www.w3.org/2000/svg" version="1.1" viewBox="0 0 1920 1080">
  <defs>
    <style>
      .cls-1 {
        fill: #fff;
        stroke-width: 0px;
      }
    </style>
  </defs>
  <g>
    <path class="cls-1" d="M790.82,598.74v-78.74h69.93v19.86h-47.83v9.4h46.07v19.74h-46.07v9.87h47.83v19.86h-69.93Z"/>
    <path class="cls-1" d="M866.97,598.74v-78.74h22.09v58.88h45.48v19.86h-67.58Z"/>
    <path class="cls-1" d="M940.43,598.74v-78.74h69.93v19.86h-47.83v9.4h46.07v19.74h-46.07v9.87h47.83v19.86h-69.93Z"/>
    <path class="cls-1" d="M1011.88,598.74l29.73-38.66v-1.53l-29.73-38.55h28.91l19.04,25.5h1.53l17.98-25.5h28.91l-29.62,39.02v1.53l29.62,38.19h-28.91l-18.92-25.62h-1.53l-18.1,25.62h-28.91Z"/>
    <path class="cls-1" d="M1110.6,598.74v-78.74h43.6c18.69,0,30.44,10.69,30.44,29.38s-11.75,29.5-30.44,29.5h-21.51v19.86h-22.09ZM1132.69,539.86v19.16h19.04c7.76,0,10.93-1.53,10.93-9.64s-3.17-9.52-10.93-9.52h-19.04Z"/>
  </g>
  <g>
    <polygon class="cls-1" points="1265.69 371 1086.47 371 975 459.41 965.53 459.41 847.51 371 668.28 371 850.28 502.95 1086.6 502.95 1265.69 371"/>
    <polygon class="cls-1" points="1271.4 748 1092.17 748 980.71 659.59 971.24 659.59 853.21 748 673.99 748 855.98 616.04 1092.3 616.04 1271.4 748"/>
  </g>
</svg>